<?xml version="1.0" encoding="utf-8"?>
<!-- Generator: Adobe Illustrator 23.0.5, SVG Export Plug-In . SVG Version: 6.00 Build 0)  -->
<svg version="1.1" id="Layer_1" xmlns="http://www.w3.org/2000/svg" xmlns:xlink="http://www.w3.org/1999/xlink" x="0px" y="0px"
	 viewBox="0 0 512 512" style="enable-background:new 0 0 512 512;" xml:space="preserve">
<style type="text/css">
	.st0{fill:#FFFFFF;}
</style>
<g>
	<path d="M268.2,49.5c-0.3,0-0.6,0-0.9,0c-3.7-0.2-6.7-1.5-8.9-3.9c-2.2-2.4-3.2-5.5-3-9.1l0.2-4.8c0.2-3.6,1.4-6.6,3.8-8.8
		c2.2-2.1,5-3.2,8.2-3.2c0.2,0,0.5,0,0.7,0c3.7,0.2,6.6,1.2,8.6,3.2c1.5,1.4,3.3,4.1,3,8.5l-0.4,1.3l-0.1,0.1l-2.8,1.5l-5.2-0.3
		l-2.9-3.1c0-0.5,0-0.8,0-0.9c-0.1,0-0.4-0.1-0.8-0.1c0,0,0,0,0,0c-0.1,0-0.2,0-0.2,0c0,0,0,0-0.1,0.1c-0.3,0.4-0.5,1.2-0.6,2.2
		l-0.2,4.9c0,1,0.1,1.7,0.4,2.2c0.1,0.1,0.2,0.2,0.6,0.3l0.2,0c0.1,0,0.2,0,0.2,0c0-0.2,0.1-0.5,0.1-1l3.1-2.9l5.2,0.3l2.7,2.2
		l0,0.1l0.1,0.9c-0.1,3.5-1.3,6.3-3.6,8.1C274,48.7,271.4,49.5,268.2,49.5z"/>
	<path class="st0" d="M276.6,38.8L276.6,38.8c-0.1,2.7-0.9,4.7-2.5,6c-1.6,1.3-3.8,1.9-6.6,1.7c-2.9-0.1-5.1-1.1-6.8-3
		c-1.7-1.8-2.4-4.2-2.3-7l0.2-4.8c0.1-2.8,1.1-5.1,2.8-6.7c1.8-1.7,4-2.4,6.8-2.3c2.9,0.1,5.2,0.9,6.7,2.4c1.5,1.4,2.2,3.5,2.1,6.1
		l-0.1,0.1l-5.2-0.3c0.1-1.4-0.2-2.5-0.8-3.1c-0.6-0.6-1.6-1-2.9-1.1c-1.2-0.1-2.2,0.4-2.9,1.3c-0.7,0.9-1.1,2.2-1.2,3.8l-0.2,4.9
		c-0.1,1.6,0.2,2.9,0.9,4c0.7,1,1.7,1.5,3,1.6c1.2,0.1,2.1-0.2,2.7-0.8c0.6-0.6,0.9-1.6,1-3L276.6,38.8z"/>
	<polygon points="278.2,49.9 275.7,46.5 278.9,23.5 282.2,20.9 287.6,21.7 290.1,25.1 287.9,41 294.8,41.9 297.4,45.3 296.8,49.4 
		293.4,52 	"/>
	<path class="st0" d="M284.6,43.5l9.9,1.4l-0.6,4.1l-15.2-2.1l3.2-23l5.3,0.7L284.6,43.5z"/>
	<polygon points="308.9,55.4 306.6,52.7 306.4,50.2 304.1,49.7 302.9,51.8 299.6,53.3 294.1,52 292.2,47.5 304.8,26.6 308.1,25.3 
		310.9,25.9 310.9,25.9 310.9,25.9 313.7,26.6 316,29.2 318.1,53.6 314.4,56.7 	"/>
	<path class="st0" d="M309.3,47.8l-6.7-1.6l-2.3,4.1l-5.5-1.3l12.6-20.9l2.8,0.7l0,0l0,0l2.8,0.7l2.1,24.3l-5.5-1.3L309.3,47.8z
		 M304.7,42.5l4.3,1l-0.5-7.5l-0.1,0L304.7,42.5z"/>
	<path d="M328.4,61.1c-1.6,0-3.3-0.3-5.1-0.9c-3.1-1-5.5-2.7-7.2-4.9c-1.4-1.8-2.7-4.8-1.1-9.2l0.4-0.8l0.1-0.1l3.3-1l0.2,0.1
		c-1.2-2.1-1.4-4.6-0.6-7.1c0.9-2.7,2.9-4.7,5.7-5.6c1.1-0.4,2.3-0.5,3.6-0.5c1.5,0,3.1,0.3,4.8,0.8c3.1,1.1,5.5,2.7,7,5
		c1.7,2.5,2,5.4,0.9,8.4L340,46L340,46l-3.3,1l0,0c0,0.1,0.1,0.1,0.1,0.2c1.4,2.3,1.7,4.9,0.7,7.7c-1,2.8-2.9,4.8-5.7,5.7
		C330.7,60.9,329.6,61.1,328.4,61.1z"/>
	<path class="st0" d="M329.6,52.2c0.3-0.8,0.2-1.5-0.2-2.1c-0.4-0.6-1.2-1.3-2.3-2.3c-2.4-1.8-4.1-3.4-5.1-4.9c-1-1.4-1.2-3.1-0.5-5
		c0.6-1.8,1.9-3.1,3.8-3.7c1.9-0.6,4.1-0.5,6.4,0.3c2.5,0.8,4.3,2.1,5.5,3.8c1.1,1.7,1.3,3.6,0.5,5.7l-0.1,0.1l-5-1.7
		c0.3-1,0.3-1.9-0.1-2.5s-1.2-1.2-2.3-1.6c-0.9-0.3-1.7-0.3-2.4-0.1c-0.7,0.3-1.1,0.7-1.4,1.4c-0.2,0.6-0.1,1.3,0.3,1.8
		c0.4,0.6,1.3,1.4,2.6,2.5c2.3,1.6,3.9,3.2,4.9,4.7c0.9,1.5,1.1,3.2,0.5,5.1c-0.7,1.9-1.9,3.2-3.8,3.8c-1.9,0.6-4.1,0.5-6.6-0.4
		c-2.5-0.8-4.4-2.1-5.7-3.9c-1.3-1.8-1.5-3.9-0.6-6.4L318,47l5,1.7c-0.4,1.3-0.4,2.3,0,3c0.4,0.8,1.3,1.3,2.6,1.8
		c1.1,0.4,1.9,0.4,2.6,0.2C328.9,53.4,329.3,52.9,329.6,52.2z"/>
	<path d="M347.5,68.7c-1.9,0-4-0.5-6.1-1.4c-2.9-1.3-5.2-3.2-6.7-5.6c-1.2-1.9-2.2-5.1-0.2-9.3l0.5-0.7l0.1-0.1l3.4-0.7l0.1,0.1
		c-1-2.2-1-4.7,0.1-7.1c1.2-2.6,3.3-4.4,6.2-5c0.8-0.2,1.6-0.3,2.5-0.3c1.9,0,3.8,0.4,5.8,1.3c3,1.3,5.2,3.2,6.5,5.6
		c1.4,2.6,1.5,5.6,0.1,8.5l-0.5,0.8l-0.1,0.1l-3.4,0.7l0,0c0,0.1,0.1,0.1,0.1,0.2c1.2,2.4,1.2,5.1,0,7.7c-1.2,2.7-3.4,4.5-6.3,5.1
		C349,68.6,348.3,68.7,347.5,68.7z"/>
	<path class="st0" d="M348.3,59.9c0.3-0.8,0.3-1.4,0-2.1c-0.3-0.6-1-1.5-2.1-2.5c-2.2-2-3.8-3.8-4.6-5.3c-0.8-1.5-0.9-3.2-0.1-5
		c0.8-1.8,2.2-2.9,4.1-3.3c2-0.4,4.1-0.1,6.4,0.9c2.4,1.1,4.1,2.5,5.1,4.3c1,1.8,1,3.7,0,5.7l-0.1,0.1l-4.8-2.1
		c0.4-1,0.5-1.8,0.2-2.5c-0.3-0.7-1.1-1.3-2.2-1.8c-0.9-0.4-1.7-0.5-2.4-0.3c-0.7,0.2-1.2,0.6-1.5,1.3c-0.3,0.6-0.2,1.2,0.1,1.8
		c0.4,0.6,1.1,1.5,2.3,2.7c2.1,1.8,3.6,3.5,4.4,5.1c0.8,1.6,0.8,3.3,0,5.2c-0.8,1.9-2.2,3-4.1,3.4c-1.9,0.4-4.1,0.1-6.5-1
		c-2.4-1.1-4.2-2.5-5.3-4.4c-1.2-1.9-1.2-4,0-6.4l0.1-0.1l4.8,2.1c-0.5,1.2-0.6,2.2-0.3,3c0.4,0.8,1.2,1.5,2.4,2
		c1,0.5,1.9,0.6,2.6,0.4C347.5,61,348,60.6,348.3,59.9z"/>
	<polygon points="351.8,71.9 350.6,67.8 361.5,47.3 365.6,46.1 370.3,48.6 371.5,52.7 360.6,73.2 356.6,74.4 	"/>
	<path class="st0" d="M358,71.7l-4.7-2.5l10.9-20.5l4.7,2.5L358,71.7z"/>
	<path d="M374.2,83.3c-2.3,0-4.6-0.8-7.1-2.3c-3.1-2-5.1-4.6-5.8-7.8c-0.7-3.2-0.1-6.4,1.8-9.5l2.6-4.1c1.9-3.1,4.5-5,7.6-5.8
		c0.9-0.2,1.9-0.4,2.8-0.4c2.2,0,4.4,0.7,6.6,2c3.1,1.9,5.1,4.3,6,7c0.6,2,0.9,5.1-1.5,8.8l-1,0.9l-0.1,0.1l-3.2,0l-4.4-2.8l-1-4.1
		c0.2-0.4,0.4-0.7,0.4-0.8c-0.1-0.1-0.3-0.3-0.6-0.5c-0.1-0.1-0.2-0.1-0.2-0.1c0,0,0,0-0.1,0c-0.5,0.2-1,0.8-1.6,1.6l-2.6,4.1
		c-0.4,0.6-0.8,1.4-0.7,2.1c0,0.2,0,0.3,0.4,0.5c0.1,0.1,0.3,0.2,0.4,0.2c0.1-0.1,0.3-0.4,0.6-0.8l4.1-0.9l4.4,2.8l1.3,3.2l0,0.1
		l-0.4,0.9c-1.8,3-4.2,4.8-7.2,5.3C375.3,83.3,374.8,83.3,374.2,83.3z"/>
	<path class="st0" d="M380.5,76.2L380.5,76.2c-1.4,2.4-3.1,3.7-5.1,4c-2,0.3-4.2-0.2-6.6-1.7c-2.4-1.5-3.9-3.5-4.5-5.9
		c-0.5-2.4-0.1-4.8,1.4-7.2l2.6-4.1c1.5-2.4,3.4-3.9,5.8-4.5c2.4-0.6,4.7-0.2,7,1.3c2.5,1.6,4.1,3.4,4.7,5.4c0.6,2,0.2,4.1-1.2,6.3
		l-0.1,0.1l-4.4-2.8c0.8-1.2,1-2.2,0.9-3.1c-0.2-0.8-0.9-1.6-2-2.4c-1-0.6-2.1-0.7-3.1-0.2c-1.1,0.5-2,1.4-2.9,2.8l-2.6,4.1
		c-0.9,1.4-1.3,2.7-1.2,3.9c0.1,1.2,0.7,2.2,1.8,2.9c1,0.7,2,0.9,2.8,0.6c0.8-0.2,1.6-1,2.3-2.2L380.5,76.2z"/>
	<path d="M397.6,100.6c-2.7,0-5.4-1.1-8-3.3c-2.8-2.4-4.4-5.2-4.7-8.5c-0.3-3.3,0.7-6.3,3.1-9.1L391,76c2.3-2.8,5.1-4.4,8.3-4.8
		c0.5-0.1,0.9-0.1,1.4-0.1c2.7,0,5.3,1,7.7,3c2.8,2.3,4.5,4.9,5,7.7c0.4,2.1,0.2,5.2-2.7,8.6l-1.1,0.8l-0.1,0l-3.1-0.4l-4-3.3
		l-0.4-4.2c0.3-0.4,0.4-0.6,0.5-0.8c-0.1-0.1-0.3-0.3-0.6-0.6c-0.1-0.1-0.2-0.1-0.2-0.1c0,0,0,0-0.1,0c-0.5,0.2-1.1,0.6-1.8,1.4
		l-3.1,3.8c-0.6,0.7-1,1.4-1,2c0,0.2,0,0.3,0.3,0.6c0.1,0.1,0.2,0.2,0.3,0.2c0.1-0.1,0.4-0.3,0.7-0.7l4.2-0.4l4,3.3l0.9,3.4l0,0.1
		l-0.5,0.8c-2.2,2.8-4.8,4.2-7.8,4.3C397.8,100.6,397.7,100.6,397.6,100.6z"/>
	<path class="st0" d="M403.4,94.3L403.4,94.3c-1.7,2.2-3.5,3.2-5.6,3.3c-2.1,0.1-4.2-0.8-6.3-2.6c-2.2-1.8-3.4-4-3.6-6.4
		c-0.2-2.5,0.6-4.8,2.4-7l3.1-3.7c1.8-2.2,3.9-3.4,6.3-3.7c2.4-0.3,4.7,0.5,6.8,2.2c2.3,1.9,3.6,3.9,3.9,5.9c0.4,2.1-0.3,4.1-2,6.1
		l-0.1,0l-4-3.3c0.9-1.1,1.3-2.1,1.3-2.9c-0.1-0.9-0.6-1.7-1.7-2.6c-0.9-0.8-2-1-3.1-0.7c-1.1,0.3-2.2,1.1-3.2,2.4l-3.1,3.8
		c-1,1.3-1.6,2.5-1.7,3.7c-0.1,1.2,0.4,2.2,1.4,3.1c0.9,0.8,1.8,1.1,2.6,1c0.8-0.1,1.7-0.7,2.6-1.9L403.4,94.3z"/>
	<path d="M413.6,115.1c-3.4,0-6.4-1.3-9.1-4c-2.6-2.7-4-5.8-3.9-9.2c0-3.4,1.4-6.4,4-9l3-2.9c2.6-2.6,5.6-3.9,9-3.9
		c3.4,0,6.5,1.4,9.1,4c2.6,2.7,3.9,5.7,3.9,9.2c-0.1,3.4-1.4,6.4-4,9l-3,2.9C420.1,113.8,417.1,115.1,413.6,115.1L413.6,115.1z
		 M417.8,96.8c-0.1,0-0.1,0-0.2,0c-0.6,0.1-1.3,0.5-2.1,1.2l-3,3c-0.7,0.7-1.1,1.4-1.3,2.1c0,0.2-0.1,0.5,0.4,0.9
		c0.4,0.4,0.6,0.4,0.7,0.4c0.1,0,0.1,0,0.2,0c0.7-0.1,1.4-0.5,2.1-1.2l3-3c0.7-0.7,1.1-1.4,1.2-2c0-0.2,0.1-0.5-0.4-0.9
		C418.2,96.8,417.9,96.8,417.8,96.8z"/>
	<path class="st0" d="M420.6,109.1c-2,2-4.3,3-6.9,3c-2.6,0-4.9-1-7-3.1c-2.1-2.1-3.1-4.4-3-7c0-2.6,1.1-4.9,3.1-6.9l3-2.9
		c2-2,4.3-3,6.9-3c2.6,0,4.9,1,7,3.1c2,2.1,3,4.4,3,7c0,2.6-1.1,4.9-3.1,6.9L420.6,109.1z M419.8,102.3c1.2-1.2,1.9-2.4,2.1-3.7
		c0.2-1.3-0.2-2.5-1.2-3.5c-1-1-2.2-1.5-3.5-1.3c-1.3,0.2-2.5,0.9-3.7,2l-3,3c-1.2,1.2-1.9,2.4-2.1,3.7c-0.2,1.3,0.2,2.5,1.2,3.5
		c1,1,2.1,1.4,3.4,1.2c1.3-0.2,2.5-0.9,3.7-2.1L419.8,102.3z"/>
	<polygon points="422.9,131.7 413.2,119.8 413.7,115.6 431.6,100.9 435.9,101.3 439.3,105.5 438.8,109.7 426.4,119.9 430.8,125.3 
		430.4,129.5 427.2,132.1 	"/>
	<path class="st0" d="M422.2,119.4l6.3,7.7l-3.2,2.6l-9.7-11.9l18-14.7l3.4,4.2L422.2,119.4z"/>
	<polygon points="432.9,146.1 424.2,133.4 425,129.3 444.1,116.1 448.3,116.9 451.4,121.4 450.6,125.5 437.3,134.6 441.3,140.3 
		440.5,144.5 437.1,146.9 	"/>
	<path class="st0" d="M433.2,133.8l5.6,8.2l-3.4,2.3l-8.7-12.7l19.1-13.1l3,4.4L433.2,133.8z"/>
	<polygon points="441.5,161.1 434,147.9 435.1,143.8 455.3,132.4 459.4,133.5 466.9,146.7 465.8,150.8 462.2,152.8 458.1,151.7 
		457.8,151.2 457,153.9 453.4,155.9 449.6,154.9 450.3,156.1 449.2,160.2 445.6,162.2 	"/>
	<path class="st0" d="M451.9,153.3l-4-7.1l-5,2.9l4.8,8.5l-3.6,2l-7.5-13.2l20.2-11.5l7.5,13.2l-3.6,2l-4.9-8.5l-4.3,2.5l4,7.1
		L451.9,153.3z"/>
	<path d="M455.8,178.9c-1.3,0-2.6-0.3-3.7-0.8c-2.6-1.1-4.6-3.4-6.1-6.6c-1.5-3.4-1.7-6.6-0.5-9.7c1.2-3.1,3.4-5.4,6.7-6.9l4.4-2
		c1.9-0.9,3.8-1.3,5.7-1.3c1.3,0,2.6,0.2,3.8,0.6c3.1,1.1,5.4,3.3,6.9,6.5c1.5,3.3,1.9,6.4,1.1,9.1c-0.6,2-2.1,4.8-6.2,6.5l-1.3,0.2
		l-0.1,0L464,173l-2.2-4.8l1.5-4c0.4-0.2,0.7-0.4,0.8-0.5c0-0.1-0.1-0.4-0.3-0.8c-0.1-0.1-0.1-0.2-0.1-0.2c0,0,0,0,0,0
		c0,0,0,0-0.1,0c-0.1,0-0.2,0-0.3,0c-0.5,0-1.2,0.2-1.9,0.5l-4.4,2c-0.6,0.3-1.4,0.7-1.7,1.3c-0.1,0.1-0.1,0.3,0,0.7
		c0.1,0.2,0.1,0.3,0.2,0.4c0.2,0,0.5-0.1,0.9-0.3l4,1.5l2.2,4.8l-0.7,3.4l-0.1,0.1l-0.7,0.5C459.2,178.5,457.5,178.9,455.8,178.9z"
		/>
	<path class="st0" d="M459.8,174.9L459.8,174.9c-2.5,1.2-4.6,1.4-6.5,0.5c-1.9-0.8-3.4-2.5-4.6-5.1c-1.2-2.6-1.3-5.1-0.5-7.4
		c0.9-2.3,2.6-4,5.2-5.2l4.4-2c2.6-1.2,5-1.4,7.3-0.6c2.3,0.8,4,2.4,5.1,5c1.2,2.7,1.5,5,1,7.1c-0.6,2-2.1,3.6-4.5,4.6l-0.1,0
		l-2.2-4.8c1.3-0.6,2.1-1.3,2.4-2.1c0.3-0.8,0.2-1.8-0.4-3.1c-0.5-1.1-1.3-1.7-2.5-1.9c-1.2-0.2-2.5,0.1-3.9,0.7l-4.4,2
		c-1.5,0.7-2.5,1.5-3.1,2.6c-0.6,1.1-0.6,2.2-0.1,3.4c0.5,1.1,1.2,1.8,1.9,2c0.8,0.2,1.8,0.1,3.2-0.5L459.8,174.9z"/>
	<polygon points="453.8,190.5 452.1,185.4 453.9,181.6 469.1,176.3 468,173.4 469.9,169.6 473.8,168.2 477.6,170.1 483.4,186.6 
		481.6,190.5 477.7,191.8 473.9,190 472.8,187 457.7,192.4 	"/>
	<path class="st0" d="M476.7,189l-2-5.8l-18,6.3l-1.8-5.1l18-6.3l-2-5.7l3.9-1.4l5.8,16.6L476.7,189z"/>
	<polygon points="457.7,203.4 456.3,198.2 458.3,194.5 480.7,188.2 484.4,190.3 485.8,195.5 483.7,199.2 461.4,205.4 	"/>
	<path class="st0" d="M460.6,202.5l-1.4-5.2l22.3-6.2l1.4,5.2L460.6,202.5z"/>
	<path d="M472.5,226.3c-2.5,0-4.7-0.7-6.8-2c-2.9-1.9-4.7-4.7-5.4-8.3c-0.7-3.7-0.1-7,1.8-9.8c1.9-2.8,4.7-4.6,8.3-5.3l4.1-0.8
		c1-0.2,1.9-0.3,2.9-0.3c2.5,0,4.8,0.7,6.8,2c2.9,1.9,4.7,4.7,5.4,8.4c0.7,3.7,0.1,7-1.8,9.8c-1.9,2.8-4.7,4.6-8.3,5.3l-4.1,0.8
		C474.4,226.2,473.4,226.3,472.5,226.3z M477.9,211c-0.3,0-0.7,0-1.1,0.1l-4.1,0.8c-1,0.2-1.7,0.5-2.2,1c-0.1,0.2-0.3,0.3-0.2,1
		c0.1,0.6,0.3,0.7,0.5,0.8c0.4,0.2,0.8,0.2,1.3,0.2l0,0c0.4,0,0.7,0,1.2-0.1l4.1-0.8c1-0.2,1.7-0.5,2.1-1c0.1-0.2,0.3-0.3,0.2-0.9
		c-0.1-0.6-0.3-0.7-0.5-0.8C478.7,211.1,478.3,211,477.9,211z"/>
	<path class="st0" d="M474.8,223.1c-2.8,0.6-5.3,0.1-7.5-1.3c-2.2-1.4-3.5-3.6-4.1-6.4c-0.6-2.9-0.1-5.4,1.3-7.6
		c1.5-2.2,3.6-3.5,6.4-4.1l4.1-0.8c2.8-0.6,5.3-0.1,7.5,1.3c2.2,1.4,3.6,3.6,4.1,6.4c0.6,2.9,0.1,5.4-1.3,7.5
		c-1.5,2.2-3.6,3.5-6.4,4.1L474.8,223.1z M477.9,217c1.6-0.3,2.9-1,3.8-1.9c0.9-1,1.2-2.2,0.9-3.6c-0.3-1.4-1-2.4-2.2-3
		c-1.2-0.5-2.6-0.7-4.2-0.3L472,209c-1.6,0.3-2.9,1-3.8,2c-0.9,1-1.2,2.2-0.9,3.6c0.3,1.4,1,2.4,2.2,2.9c1.2,0.6,2.6,0.7,4.3,0.3
		L477.9,217z"/>
	<polygon points="464.6,247.1 464.1,241.8 465.4,239 470.2,235.6 466.6,235.9 463.3,233.2 462.9,227.8 465.6,224.6 488.7,222.4 
		491.9,225.2 492.4,230.5 491.2,233.2 486.3,236.7 490,236.4 493.2,239.1 493.7,244.4 491,247.7 467.9,249.8 	"/>
	<path class="st0" d="M467.6,246.8l-0.5-5.3l13.7-9.8l0-0.1l-14.5,1.3l-0.5-5.4l23.1-2.1l0.5,5.4l-13.7,9.8l0,0.1l14.5-1.3l0.5,5.3
		L467.6,246.8z"/>
	<path d="M467,276.8l-2.9-3.1l0.6-16.1l3.1-2.9l3.5,0.1l2,0.9l6.9,6.9l0.2-4.9l2.2-2.8l0.1,0l0.9-0.1c2.9,0,5.5,1.2,7.5,3.3
		c2,2.1,2.9,4.8,2.8,8.1c-0.1,3.3-1.1,5.9-3,7.8c-1.8,1.8-4.2,2.8-7,2.8c-0.2,0-0.3,0-0.5,0c-2.1-0.1-3.9-0.7-5.5-1.9
		c-0.9-0.7-2.1-1.7-3.7-3.2l-0.1,2.5l-3.1,2.9L467,276.8z"/>
	<path class="st0" d="M467.1,273.8l0.6-16.1l3.5,0.1l7.5,7.4c1,1,2,1.7,2.8,2.2c0.8,0.5,1.6,0.7,2.2,0.8c0.9,0,1.6-0.1,2.2-0.5
		c0.5-0.4,0.8-1,0.9-1.9c0-0.8-0.3-1.5-0.9-2c-0.7-0.5-1.5-0.8-2.6-0.8l0.2-5.3l0.1,0c2.1,0,3.9,0.8,5.4,2.3c1.4,1.5,2.1,3.5,2,5.9
		c-0.1,2.5-0.8,4.5-2.1,5.8c-1.3,1.3-3,1.9-5.2,1.9c-1.5-0.1-2.7-0.5-3.8-1.3c-1.1-0.8-2.7-2.3-4.8-4.4l-3.3-3l-0.1,0l-0.4,8.9
		L467.1,273.8z"/>
	<path d="M481.1,296.9c-0.7,0-1.4,0-2.1-0.1L473,296c-3.5-0.4-6.2-1.8-8.1-4.1c-1.9-2.3-2.7-5.1-2.2-8.4c0.4-3.3,1.9-5.8,4.3-7.6
		c1.9-1.4,4.2-2.1,6.8-2.1c0.7,0,1.4,0,2.1,0.1l6.1,0.8c3.5,0.4,6.2,1.8,8.1,4.1c1.9,2.3,2.7,5.1,2.3,8.4c-0.4,3.2-1.9,5.8-4.3,7.6
		C486.1,296.2,483.8,296.9,481.1,296.9z"/>
	<path class="st0" d="M473.3,293c-2.7-0.4-4.8-1.4-6.2-3c-1.4-1.7-1.9-3.7-1.6-6.1c0.3-2.4,1.3-4.3,3.1-5.5c1.7-1.3,4-1.7,6.7-1.4
		l6.1,0.8c2.8,0.4,4.8,1.4,6.2,3c1.4,1.7,1.9,3.7,1.6,6.1c-0.3,2.4-1.3,4.2-3.1,5.5c-1.7,1.3-4,1.7-6.7,1.4L473.3,293z M480.5,288.5
		c1.4,0.2,2.5,0.1,3.3-0.3c0.8-0.4,1.3-1,1.4-1.8c0.1-0.9-0.2-1.6-0.9-2.1c-0.7-0.6-1.7-0.9-3.1-1.1l-6.8-0.9
		c-1.4-0.2-2.5-0.1-3.3,0.3c-0.8,0.4-1.2,1-1.4,1.9c-0.1,0.8,0.2,1.5,0.8,2.1c0.7,0.6,1.7,0.9,3.2,1.1L480.5,288.5z"/>
	<path d="M479.2,316c-0.8,0-1.6-0.1-2.5-0.3c-2-0.4-3.7-1.4-5.1-2.8c-0.8-0.8-1.8-2.1-3.1-3.8l-0.5,2.5l-3.6,2.3l-4-0.9l-2.3-3.6
		l3.4-15.8l3.6-2.3l3.4,0.7l1.8,1.2l5.7,8l1-4.8l2.6-2.3l0.1,0l0.9,0c2.9,0.6,5.2,2.1,6.8,4.5c1.6,2.4,2.1,5.3,1.4,8.5
		c-0.7,3.2-2.1,5.6-4.3,7.1C483,315.5,481.2,316,479.2,316z"/>
	<path class="st0" d="M461,310.1l3.4-15.8l3.4,0.7l6.1,8.6c0.9,1.2,1.7,2.1,2.4,2.7c0.7,0.6,1.4,1,2,1.1c0.9,0.2,1.6,0.1,2.2-0.1
		c0.6-0.3,1-0.9,1.2-1.7c0.2-0.8,0-1.5-0.6-2.1c-0.6-0.6-1.4-1-2.4-1.2l1.1-5.2l0.1,0c2.1,0.4,3.7,1.5,4.9,3.2
		c1.1,1.8,1.5,3.8,0.9,6.2c-0.5,2.5-1.6,4.3-3.1,5.3c-1.5,1.1-3.3,1.4-5.5,0.9c-1.4-0.3-2.6-1-3.6-2c-0.9-1-2.3-2.7-4-5.2l-2.7-3.5
		l-0.1,0l-1.9,8.7L461,310.1z"/>
	<polygon points="466.2,332 463.3,333.6 459.3,332.3 457.8,329.4 455.3,328.6 453.4,324.9 455,319.7 458.7,317.8 460.5,318.3 
		462.4,312.4 465.9,310.4 469.1,311 470.8,312 482.2,325.6 481.6,326.2 482.8,328.4 481.2,333.6 477.5,335.6 	"/>
	<path class="st0" d="M464.9,328.5l-0.7,2.2l-4-1.2l0.7-2.2l-4.7-1.5l1.6-5.1l4.7,1.5l2.8-8.8l3.3,0.7l11.4,13.6l0,0l-1.6,5.1
		L464.9,328.5z M467.9,318.6l-1.5,4.7l6.9,2.2l0-0.1l-1-0.9L467.9,318.6z"/>
	<path d="M454.5,360.9c-2.3-1.1-4-2.6-5-4.6c-1.1-2.2-1.2-4.5-0.2-6.7c0.5-1.2,1.3-2.2,2.2-3c0.9-0.8,1.9-1.4,3.2-2l-0.9-3.2l2-3.1
		l3.8-1.1c2.3,1.1,4,2.6,5,4.5c1.1,2.2,1.2,4.5,0.2,6.7c-0.5,1.2-1.3,2.2-2.2,3c-0.9,0.8-1.9,1.4-3.1,2l0.9,3.2l-2,3.1L454.5,360.9z
		"/>
	<path class="st0" d="M455.8,358.2c-1.7-0.8-2.9-1.8-3.6-3.2c-0.7-1.4-0.7-2.7-0.1-4c0.4-0.8,0.9-1.5,1.5-2c0.6-0.5,1.4-1,2.4-1.4
		c0.6-0.3,1.1-0.5,1.4-0.7c0.3-0.2,0.6-0.5,0.7-0.9c0.2-0.4,0.1-0.9-0.2-1.4c-0.3-0.5-0.9-0.9-1.5-1.2l2-3.1
		c1.7,0.8,2.9,1.8,3.6,3.2c0.7,1.3,0.7,2.7,0.1,4c-0.4,0.8-0.9,1.5-1.5,2c-0.6,0.6-1.4,1.1-2.4,1.5c-0.6,0.2-1.1,0.5-1.4,0.7
		c-0.3,0.2-0.6,0.6-0.7,0.9c-0.2,0.4-0.1,0.9,0.2,1.4c0.3,0.5,0.9,0.9,1.6,1.3L455.8,358.2z"/>
	<path d="M447.4,390.5c-2,0-4.1-0.7-6.1-2l-0.9-0.9l-0.1-0.1l0-3.2l2.8-4.4l4.1-0.9c0.4,0.3,0.7,0.4,0.8,0.4
		c0.1-0.1,0.3-0.3,0.5-0.6c0.1-0.1,0.1-0.2,0.1-0.2l0,0c0,0,0,0,0-0.1c-0.2-0.5-0.8-1.1-1.6-1.6l-4.1-2.6c-0.8-0.5-1.4-0.7-2-0.7
		l-0.1,0c-0.2,0-0.3,0-0.5,0.4c-0.1,0.1-0.2,0.3-0.2,0.4c0.1,0.1,0.4,0.3,0.8,0.6l0.9,4.1l-2.8,4.4l-3.2,1.3l-0.1,0l-0.9-0.4
		c-3-1.9-4.8-4.3-5.3-7.2c-0.4-2.8,0.3-5.7,2.2-8.7c2-3.1,4.6-5,7.8-5.7c0.8-0.2,1.7-0.3,2.5-0.3c2.4,0,4.7,0.7,7,2.2l4.1,2.6
		c3,1.9,5,4.5,5.8,7.6c0.8,3.2,0.2,6.3-1.7,9.4c-2,3.1-4.3,5.1-7,5.9C449.2,390.4,448.3,390.5,447.4,390.5z"/>
	<path class="st0" d="M436.5,381.8L436.5,381.8c-2.4-1.4-3.6-3.1-4-5.1c-0.3-2,0.3-4.2,1.8-6.6c1.5-2.4,3.5-3.9,5.9-4.4
		c2.4-0.5,4.8,0,7.2,1.5l4.1,2.6c2.4,1.5,3.9,3.5,4.5,5.8c0.6,2.4,0.1,4.7-1.3,7c-1.6,2.5-3.4,4-5.4,4.7c-2,0.6-4.1,0.2-6.3-1.2
		l-0.1-0.1l2.8-4.4c1.2,0.8,2.2,1.1,3.1,0.9c0.8-0.2,1.6-0.9,2.4-2c0.6-1,0.7-2.1,0.3-3.1c-0.5-1.1-1.4-2-2.8-2.9l-4.1-2.6
		c-1.4-0.9-2.7-1.3-3.9-1.2c-1.2,0.1-2.2,0.7-2.9,1.8c-0.7,1-0.9,2-0.7,2.7c0.2,0.8,1,1.6,2.2,2.4L436.5,381.8z"/>
	<polygon points="429,390.6 424.7,396.1 420.5,396.7 417.2,394.1 416.7,389.9 426.1,377.8 430.3,377.2 448.6,391.4 449.2,395.6 
		445.9,399.8 441.7,400.4 	"/>
	<path class="st0" d="M428.4,386.4l-6.1,7.9l-3.3-2.5l9.4-12.2l18.4,14.1l-3.3,4.3L428.4,386.4z"/>
	<polygon points="403,410.7 402.1,405.9 405.9,401.7 409.5,401.1 411.7,402.2 413.3,400.4 412.1,398.3 412.5,394.7 416.3,390.5 
		421.1,391.1 433,412.4 432.6,415.9 430.6,418 430.6,418 430.6,418.1 428.7,420.2 425.2,420.9 	"/>
	<path class="st0" d="M412.4,405.8l4.7-5.1l-2.4-4l3.9-4.2l11.9,21.3l-2,2.1l0,0v0l-2,2.1l-22.2-10.2l3.9-4.2L412.4,405.8z
		 M419.3,404.5l-3,3.2l6.8,3.3l0.1-0.1L419.3,404.5z"/>
	<path d="M406.4,437.6c-2.7,0-5.1-1.2-7-3.4l-0.5-0.8l0.7-3.5l0,0c-0.1,0-0.1,0-0.2,0c-0.1,0-0.2,0-0.3,0c-2.5,0-4.9-1.1-6.7-3.1
		c-2-2.2-2.7-4.9-2.1-7.8c0.6-2.5,2.1-4.9,4.5-7.1c2.4-2.1,5-3.4,7.8-3.8c0.4-0.1,0.8-0.1,1.2-0.1c1.9,0,4.7,0.6,7.3,3.7l0.5,0.8
		l0,0.1l-0.8,3.4l-0.1,0.1c0,0,0,0,0.1,0c2.4,0,4.6,1,6.4,3c1.9,2.2,2.6,4.8,2,7.8c-0.5,2.6-2,5-4.4,7.1c-2.5,2.2-5.1,3.4-7.8,3.6
		C406.9,437.6,406.6,437.6,406.4,437.6z"/>
	<path class="st0" d="M398.6,421.2c0.6,0.6,1.2,0.9,1.9,0.9c0.7,0,1.7-0.3,3.1-0.9c2.8-1.2,5-1.9,6.8-2c1.7-0.1,3.3,0.5,4.6,2
		c1.3,1.4,1.7,3.2,1.3,5.1c-0.4,2-1.6,3.8-3.4,5.5c-2,1.8-4,2.7-6,2.9c-2,0.2-3.8-0.6-5.2-2.3l0-0.1l3.9-3.5
		c0.7,0.8,1.5,1.2,2.3,1.2c0.8,0,1.6-0.4,2.5-1.2c0.7-0.6,1.1-1.3,1.2-2.1c0.1-0.7-0.1-1.4-0.6-1.9c-0.5-0.5-1-0.7-1.7-0.6
		c-0.7,0.1-1.8,0.4-3.4,1c-2.5,1.2-4.7,1.8-6.5,1.9c-1.8,0.1-3.4-0.6-4.7-2.1c-1.4-1.5-1.8-3.2-1.4-5.2c0.4-1.9,1.6-3.8,3.6-5.5
		c2-1.7,4-2.8,6.2-3.1c2.2-0.3,4.1,0.6,5.9,2.6l0,0.1l-3.9,3.5c-0.9-1-1.8-1.5-2.7-1.5c-0.9,0-1.8,0.5-2.8,1.4
		c-0.8,0.7-1.3,1.5-1.4,2.2C397.9,420.1,398.1,420.7,398.6,421.2z"/>
	<path d="M389.6,450.9c-3-0.1-5.5-1.5-7.4-4.1l-0.4-0.8l0-0.1l1.1-3.4c-0.1,0-0.1,0-0.2,0c-2.7-0.2-5-1.5-6.7-3.8
		c-1.8-2.4-2.3-5.2-1.4-8c0.8-2.5,2.5-4.7,5.1-6.7c2.6-1.9,5.3-2.9,8.1-3.1c0.1,0,0.3,0,0.4,0c2.1,0,5.2,0.8,7.8,4.4l0.4,0.8l-1,3.4
		l-0.1,0.1c2.4,0.2,4.5,1.4,6.2,3.6c1.7,2.3,2.2,5.1,1.3,7.9c-0.8,2.5-2.5,4.8-5,6.7c-2.6,1.9-5.3,2.9-7.9,2.9L389.6,450.9z"/>
	<path class="st0" d="M382.6,433.7c0.5,0.7,1.1,1,1.8,1c0.7,0,1.8-0.2,3.2-0.6c2.9-1,5.2-1.4,6.9-1.4c1.8,0,3.2,0.8,4.4,2.4
		c1.2,1.6,1.4,3.3,0.8,5.2s-1.9,3.6-3.9,5.1c-2.1,1.6-4.2,2.3-6.2,2.3c-2,0-3.7-1-5-2.8l0-0.1l4.2-3.1c0.6,0.9,1.4,1.3,2.1,1.4
		c0.8,0,1.6-0.3,2.6-1c0.8-0.6,1.3-1.2,1.4-1.9c0.2-0.7,0-1.4-0.4-1.9c-0.4-0.5-1-0.8-1.7-0.8c-0.7,0-1.9,0.2-3.5,0.7
		c-2.6,1-4.8,1.4-6.6,1.3c-1.8-0.1-3.3-1-4.5-2.6c-1.2-1.6-1.5-3.4-0.9-5.3c0.6-1.9,2-3.6,4.1-5.2c2.1-1.6,4.3-2.4,6.5-2.5
		c2.2-0.1,4.1,1,5.6,3.1l0,0.1l-4.2,3.1c-0.8-1.1-1.6-1.7-2.5-1.7c-0.9-0.1-1.9,0.3-3,1.1c-0.9,0.7-1.4,1.3-1.6,2
		C382.1,432.5,382.2,433.2,382.6,433.7z"/>
	<polygon points="377.5,457.5 365,438 366,433.8 370.5,431 374.6,431.9 387.1,451.4 386.2,455.6 381.7,458.5 	"/>
	<path class="st0" d="M367.6,436.4l4.5-2.9l12.5,19.6l-4.5,2.9L367.6,436.4z"/>
	<path d="M362.6,467.8c-0.7,0-1.4-0.1-2.1-0.2c-2-0.4-4.9-1.8-7-5.7l-0.3-1.3l0-0.1l1.6-2.7l4.6-2.5l4.1,1.2
		c0.2,0.4,0.4,0.6,0.5,0.8c0.1,0,0.4-0.1,0.7-0.3c0.1-0.1,0.2-0.1,0.2-0.1c0,0,0,0,0-0.1c0-0.5-0.2-1.3-0.6-2.2l-2.3-4.3
		c-0.3-0.6-0.8-1.3-1.5-1.6c-0.1-0.1-0.2-0.1-0.2-0.1c-0.1,0-0.3,0.1-0.5,0.2c-0.2,0.1-0.3,0.2-0.3,0.2c0.1,0.2,0.2,0.5,0.4,0.9
		l-1.2,4.1l-4.6,2.5l-3.5-0.4l-0.1-0.1l-0.6-0.7c-1.7-3.1-2.1-6.1-1.1-8.8c1-2.6,3-4.8,6.2-6.5c2.1-1.1,4.2-1.7,6.3-1.7
		c1.1,0,2.2,0.2,3.3,0.5c3.1,0.9,5.6,3.1,7.3,6.3l2.3,4.3c1.7,3.2,2.2,6.4,1.3,9.5c-0.9,3.2-2.9,5.6-6,7.3
		C367.1,467.2,364.8,467.8,362.6,467.8z"/>
	<path class="st0" d="M352.6,453.8L352.6,453.8c-1.4-2.4-1.7-4.5-1-6.4c0.7-1.9,2.3-3.6,4.8-4.9c2.5-1.4,5-1.7,7.3-1
		c2.4,0.7,4.2,2.3,5.6,4.8l2.3,4.3c1.3,2.5,1.7,4.9,1.1,7.2c-0.6,2.3-2.2,4.2-4.6,5.5c-2.6,1.4-4.9,1.9-7,1.4
		c-2.1-0.4-3.7-1.8-4.9-4.1l0-0.1l4.6-2.5c0.7,1.2,1.4,2,2.3,2.3c0.8,0.3,1.8,0.1,3.1-0.6c1.1-0.6,1.7-1.4,1.8-2.6s-0.2-2.5-1-3.9
		l-2.3-4.3c-0.8-1.4-1.7-2.4-2.8-2.9c-1.1-0.5-2.2-0.5-3.4,0.2c-1.1,0.6-1.7,1.3-1.9,2.1c-0.2,0.8,0.1,1.8,0.7,3.1L352.6,453.8z"/>
	<path d="M335.1,480.2c-1.3,0-2.5-0.2-3.6-0.6c-2-0.7-4.6-2.4-6.1-6.6l-0.2-1.3l0-0.1l1.9-2.5l4.9-1.9l3.9,1.7
		c0.2,0.4,0.3,0.7,0.4,0.8c0.2,0,0.4-0.1,0.8-0.2c0.1,0,0.2-0.1,0.2-0.1c0,0,0,0,0-0.1c0.1-0.5,0-1.3-0.3-2.2l-1.7-4.6
		c-0.3-0.9-0.8-1.5-1.2-1.8c-0.1-0.1-0.2-0.1-0.2-0.1c-0.1,0-0.2,0-0.4,0.1c-0.2,0.1-0.3,0.1-0.4,0.2c0,0.2,0.1,0.5,0.3,1l-1.7,3.9
		l-4.9,1.9l-3.4-0.9l-0.1-0.1l-0.5-0.8c-1.3-3.3-1.3-6.3,0.1-8.9c1.3-2.5,3.6-4.4,7-5.6c1.7-0.6,3.3-1,4.9-1c1.7,0,3.3,0.4,4.8,1
		c3,1.4,5.1,3.8,6.4,7.2l1.7,4.5c1.3,3.4,1.3,6.6,0,9.5c-1.3,3-3.6,5.2-7,6.5C338.7,479.8,336.8,480.2,335.1,480.2z"/>
	<path class="st0" d="M325.5,464.8L325.5,464.8c-1-2.5-1.1-4.7-0.1-6.5c1-1.8,2.7-3.2,5.4-4.2c2.7-1,5.1-1,7.4,0
		c2.2,1,3.9,2.9,4.9,5.5l1.7,4.5c1,2.6,1,5.1,0.1,7.3c-0.9,2.2-2.7,3.8-5.3,4.8c-2.8,1-5.1,1.2-7.1,0.5c-2-0.7-3.4-2.3-4.3-4.8
		l0-0.1l4.9-1.9c0.5,1.3,1.2,2.2,1.9,2.5c0.8,0.4,1.8,0.3,3.1-0.2c1.1-0.4,1.8-1.2,2.1-2.4c0.3-1.1,0.1-2.5-0.5-4l-1.7-4.6
		c-0.6-1.5-1.4-2.6-2.4-3.3c-1-0.7-2.1-0.8-3.4-0.3c-1.2,0.4-1.9,1-2.2,1.8c-0.3,0.8-0.2,1.8,0.3,3.2L325.5,464.8z"/>
	<path d="M314.5,486.8c-2.2,0-4.3-0.6-6.2-1.7c-2.9-1.7-4.9-4.4-5.8-7.9l-1.1-4c-0.9-3.5-0.6-6.8,1.1-9.8c1.7-3,4.4-5,8-5.9
		c1.3-0.3,2.6-0.5,3.8-0.5c2.2,0,4.3,0.6,6.1,1.7c2.9,1.7,4.9,4.4,5.9,7.9l1.1,4c0.9,3.5,0.6,6.8-1.1,9.8c-1.7,3-4.4,5-8,6
		C317,486.6,315.7,486.8,314.5,486.8z M313.6,467.2c-0.1,0-0.3,0-0.5,0.1c-0.5,0.1-0.6,0.3-0.7,0.6c-0.2,0.6-0.2,1.4,0,2.4l1.1,4.1
		c0.3,1,0.6,1.7,1.2,2.1c0.2,0.2,0.3,0.2,0.5,0.2c0.1,0,0.3,0,0.5-0.1c0.6-0.2,0.7-0.4,0.8-0.6c0.2-0.6,0.2-1.4,0-2.4l-1.1-4.1
		c-0.3-1-0.7-1.7-1.2-2.1C313.9,467.2,313.8,467.2,313.6,467.2z"/>
	<path class="st0" d="M304.3,472.4c-0.7-2.8-0.5-5.3,0.8-7.5c1.3-2.3,3.3-3.8,6.1-4.5c2.8-0.8,5.4-0.5,7.6,0.8
		c2.2,1.3,3.7,3.4,4.5,6.1l1.1,4c0.7,2.7,0.5,5.3-0.8,7.5c-1.3,2.3-3.3,3.8-6.2,4.5c-2.8,0.8-5.3,0.5-7.6-0.9
		c-2.2-1.3-3.7-3.4-4.5-6.1L304.3,472.4z M310.6,475.1c0.4,1.6,1.2,2.8,2.2,3.6c1,0.8,2.2,1.1,3.6,0.7c1.4-0.4,2.3-1.2,2.8-2.4
		s0.5-2.6,0.1-4.2l-1.1-4.1c-0.4-1.6-1.2-2.8-2.2-3.7c-1-0.8-2.2-1-3.7-0.7c-1.4,0.4-2.3,1.2-2.8,2.4c-0.5,1.2-0.5,2.6-0.1,4.3
		L310.6,475.1z"/>
	<polygon points="294.6,487.9 292,472.1 285.1,473.3 281.7,470.8 281,466.7 283.4,463.3 298.6,460.7 302,463.2 305.9,486.1 
		303.4,489.5 298.1,490.4 	"/>
	<path class="st0" d="M294.4,468.7l-9.8,1.7l-0.7-4.1l15.1-2.5l3.8,22.9l-5.3,0.9L294.4,468.7z"/>
	<polygon points="275.1,490.3 273.8,474.3 266.9,474.9 263.6,472.1 263.3,468 266,464.8 281.3,463.5 284.6,466.2 286.5,489.4 
		283.7,492.6 278.4,493 	"/>
	<path class="st0" d="M276.5,471.1l-9.9,0.8l-0.3-4.1l15.3-1.3l1.9,23.1l-5.4,0.4L276.5,471.1z"/>
	<polygon points="248.3,493.9 245.4,490.8 245.4,486.7 248.5,483.7 249.1,483.8 247.1,481.7 247.2,477.6 250,474.9 248.6,474.8 
		245.7,471.8 245.8,467.6 248.8,464.7 264,464.9 266.9,468 266.6,491.2 263.5,494.1 	"/>
	<path class="st0" d="M250.2,477.6l8.2,0.1l0.1-5.8l-9.8-0.2l0.1-4.1l15.2,0.2l-0.4,23.2l-15.2-0.2l0.1-4.1l9.8,0.2l0.1-5l-8.2-0.1
		L250.2,477.6z"/>
	<path d="M236.4,493.4c-0.4,0-0.9,0-1.3-0.1c-3.6-0.3-6.5-1.5-8.5-3.5c-2.1-2.2-3-5.1-2.6-8.6l0.4-1.2l0.1-0.1l2.8-1.4l5.2,0.5
		l2.7,3.3c0,0.5,0,0.8,0,0.9c0.1,0,0.4,0.1,0.8,0.1l0.1,0c0.1,0,0.1,0,0.1,0c0,0,0,0,0.1-0.1c0.3-0.4,0.6-1.2,0.7-2.2l0.4-4.9
		c0.1-1,0-1.7-0.3-2.2c-0.1-0.1-0.1-0.2-0.6-0.3c-0.1,0-0.2,0-0.3,0c0,0-0.1,0-0.1,0c-0.1,0.2-0.1,0.5-0.2,1l-3.3,2.7l-5.2-0.5
		l-2.6-2.3l-0.1-1c0.3-3.5,1.6-6.2,4-8c1.9-1.4,4.3-2.1,7.1-2.1c0.5,0,1.1,0,1.7,0.1c3.7,0.3,6.6,1.8,8.7,4.3c2.1,2.5,3,5.6,2.7,9.3
		l-0.4,4.8c-0.3,3.6-1.7,6.5-4.1,8.6C242,492.5,239.4,493.4,236.4,493.4z"/>
	<path class="st0" d="M227.7,473.9L227.7,473.9c0.2-2.7,1.1-4.7,2.7-5.9c1.7-1.2,3.9-1.7,6.7-1.5c2.9,0.3,5.1,1.3,6.6,3.2
		c1.6,1.9,2.2,4.3,2,7.1l-0.4,4.8c-0.3,2.8-1.3,5-3.1,6.6c-1.8,1.6-4.1,2.3-6.8,2c-2.9-0.3-5.1-1.1-6.6-2.7
		c-1.5-1.5-2.1-3.6-1.8-6.2l0.1-0.1l5.2,0.5c-0.1,1.4,0.1,2.5,0.6,3.1c0.5,0.7,1.5,1.1,2.9,1.2c1.2,0.1,2.2-0.3,2.9-1.2
		c0.7-0.9,1.2-2.2,1.3-3.8l0.4-4.9c0.1-1.6-0.1-2.9-0.7-4c-0.6-1-1.6-1.6-2.9-1.7c-1.2-0.1-2.1,0.1-2.7,0.7c-0.6,0.6-1,1.6-1.1,3
		L227.7,473.9z"/>
	<polygon points="205.9,488.7 203.4,485.2 204.2,481.2 207.6,478.7 210.7,479.3 213.6,463.5 217,461.1 222.3,462 224.8,465.5 
		221.9,481.3 224.9,481.8 227.3,485.3 226.6,489.4 223.1,491.8 	"/>
	<path class="st0" d="M207.1,481.7l6,1.1l3.4-18.8l5.3,1l-3.4,18.8l5.9,1.1l-0.7,4.1l-17.3-3.1L207.1,481.7z"/>
	<polygon points="196.9,486.4 194.7,482.8 200.3,460.3 203.9,458.1 209.1,459.4 211.3,463 205.7,485.5 202.1,487.7 	"/>
	<path class="st0" d="M203.2,461l5.2,1.3l-5.6,22.5l-5.2-1.3L203.2,461z"/>
	<path d="M186.8,483.2c-1.4,0-2.9-0.3-4.4-0.7c-3.5-1.2-6.1-3.3-7.6-6.4c-1.5-3.1-1.7-6.4-0.6-9.8l1.3-4c1.1-3.5,3.2-6,6.3-7.6
		c1.7-0.9,3.6-1.4,5.5-1.4c1.4,0,2.9,0.3,4.4,0.7c3.6,1.2,6.2,3.3,7.7,6.4c1.5,3.1,1.7,6.4,0.6,9.8l-1.3,4c-1.1,3.5-3.2,6-6.3,7.6
		C190.6,482.8,188.8,483.2,186.8,483.2z M188.1,463.7c-0.1,0-0.2,0-0.5,0.2c-0.5,0.4-1,1.1-1.3,2l-1.3,4c-0.3,0.9-0.4,1.7-0.2,2.4
		c0.1,0.2,0.1,0.4,0.7,0.6c0.2,0.1,0.4,0.1,0.5,0.1c0.1,0,0.3,0,0.4-0.2c0.5-0.4,1-1.1,1.3-2l1.3-4c0.3-1,0.4-1.8,0.2-2.4
		c-0.1-0.2-0.1-0.4-0.8-0.6C188.4,463.7,188.2,463.7,188.1,463.7z"/>
	<path class="st0" d="M178.4,463.3c0.9-2.7,2.5-4.7,4.8-5.9c2.3-1.2,4.8-1.3,7.6-0.4c2.8,0.9,4.8,2.5,5.9,4.9
		c1.2,2.3,1.3,4.9,0.4,7.6l-1.3,4c-0.9,2.7-2.5,4.7-4.8,5.9c-2.3,1.2-4.9,1.3-7.6,0.4c-2.8-0.9-4.7-2.5-5.9-4.9
		c-1.2-2.3-1.3-4.9-0.4-7.6L178.4,463.3z M182.2,468.9c-0.5,1.6-0.6,3-0.2,4.2c0.4,1.3,1.3,2.1,2.6,2.5c1.4,0.5,2.6,0.3,3.7-0.5
		c1.1-0.8,1.9-1.9,2.4-3.5l1.3-4c0.5-1.6,0.6-3,0.2-4.3c-0.4-1.3-1.3-2.1-2.7-2.6c-1.3-0.4-2.5-0.3-3.6,0.5
		c-1.1,0.8-1.9,1.9-2.4,3.5L182.2,468.9z"/>
	<polygon points="163.1,474.9 161.4,472.5 160.8,466.5 159.3,469.9 155.3,471.4 150.4,469.1 148.9,465.2 158.5,444 162.4,442.5 
		167.3,444.7 169.1,447.2 169.7,453.1 171.2,449.8 175.1,448.3 180.1,450.5 181.6,454.5 172,475.6 168,477.1 	"/>
	<path class="st0" d="M161.2,445.3l4.9,2.2l1.7,16.8l0.1,0l6-13.3l4.9,2.2l-9.5,21.1l-4.9-2.2l-1.7-16.8l-0.1,0l-6,13.3l-4.9-2.2
		L161.2,445.3z"/>
	<path d="M137.4,460.5c-2,0-4.1-0.6-6-1.8c-2.8-1.7-4.6-3.9-5.3-6.4c-0.7-2.6-0.3-5.3,1.3-7.9c1.1-1.8,2.6-3,4.4-3.8
		c1.1-0.5,2.6-1,4.6-1.6l-2.1-1.3l-1-4.1l2.2-3.5l4.1-1l13.7,8.5l1,4.1l-1.9,3l-1.7,1.3l-9.4,2.6l4.2,2.6l1.3,3.3l-0.4,0.9
		c-1.5,2.5-3.8,4.2-6.6,4.9C139,460.4,138.2,460.5,137.4,460.5z"/>
	<path class="st0" d="M138,431.5l13.7,8.5l-1.9,3l-10.2,2.9c-1.4,0.4-2.5,0.9-3.3,1.3c-0.8,0.5-1.4,1-1.7,1.5
		c-0.5,0.8-0.7,1.5-0.6,2.1c0.1,0.7,0.5,1.2,1.2,1.7c0.7,0.4,1.4,0.5,2.2,0.2c0.8-0.3,1.4-1,2-1.9l4.5,2.8l0,0.1
		c-1.1,1.8-2.7,3-4.7,3.5c-2,0.5-4.1,0.1-6.1-1.2c-2.2-1.3-3.5-2.9-4-4.7c-0.5-1.8-0.2-3.6,1-5.5c0.8-1.2,1.8-2.1,3-2.7
		c1.2-0.6,3.3-1.2,6.2-2l4.2-1.4l0-0.1l-7.6-4.7L138,431.5z"/>
	<path d="M120.6,449c-2.3,0-4.6-0.8-6.6-2.4c-2.6-2-4.1-4.5-4.4-7.5c-0.3-2.9,0.6-5.8,2.7-8.7l3.7-4.9c2.1-2.8,4.7-4.5,7.6-5
		c0.6-0.1,1.2-0.2,1.8-0.2c2.3,0,4.6,0.8,6.6,2.4c2.6,2,4.1,4.5,4.5,7.5c0.3,2.9-0.6,5.8-2.7,8.7l-3.7,4.9c-2.1,2.8-4.7,4.5-7.6,5
		C121.8,449,121.2,449,120.6,449z"/>
	<path class="st0" d="M118.3,427.4c1.7-2.2,3.6-3.5,5.7-3.9c2.1-0.4,4.2,0.2,6.1,1.6c2,1.5,3,3.3,3.3,5.4c0.2,2.1-0.5,4.3-2.1,6.5
		l-3.7,4.9c-1.7,2.2-3.6,3.5-5.7,3.9c-2.1,0.4-4.1-0.2-6.1-1.6c-1.9-1.5-3-3.3-3.3-5.4c-0.2-2.2,0.5-4.3,2.1-6.5L118.3,427.4z
		 M118.7,435.9c-0.8,1.1-1.3,2.1-1.4,3c-0.1,0.9,0.2,1.6,0.9,2.1c0.7,0.5,1.4,0.6,2.3,0.3c0.8-0.3,1.7-1,2.5-2.2l4.1-5.5
		c0.9-1.2,1.3-2.2,1.4-3c0.1-0.9-0.2-1.6-0.9-2.1c-0.7-0.5-1.4-0.6-2.3-0.3c-0.8,0.3-1.7,1-2.5,2.2L118.7,435.9z"/>
	<path d="M105.6,436.8c-2.7,0-5.1-1-7.4-3c-2.4-2.2-3.8-4.6-4.1-7.2c-0.3-2.7,0.6-5.3,2.7-7.5c1.4-1.5,3.1-2.6,5-3
		c1.1-0.3,2.7-0.5,4.8-0.8l-1.9-1.7l-0.2-4.2l2.8-3.1l4.2-0.2l12,10.8l0.2,4.2l-2.3,2.6l-1.9,1l-9.7,1l3.6,3.3l0.7,3.4l-0.5,0.9
		c-1.9,2.3-4.4,3.5-7.3,3.7C106.1,436.8,105.9,436.8,105.6,436.8z"/>
	<path class="st0" d="M109.5,408.2l12,10.8l-2.3,2.6l-10.5,1.1c-1.4,0.2-2.6,0.4-3.5,0.7c-0.9,0.3-1.6,0.7-2,1.2
		c-0.6,0.7-0.9,1.3-1,2c-0.1,0.7,0.3,1.3,0.9,1.9c0.6,0.6,1.3,0.7,2.1,0.5c0.8-0.2,1.6-0.7,2.3-1.5l3.9,3.5l0,0.1
		c-1.4,1.6-3.1,2.5-5.2,2.6c-2.1,0.1-4-0.6-5.8-2.2c-1.9-1.7-2.9-3.5-3.1-5.3c-0.2-1.9,0.4-3.6,1.9-5.2c1-1.1,2.1-1.8,3.5-2.1
		c1.3-0.3,3.5-0.6,6.5-0.9l4.4-0.6l0-0.1l-6.7-6L109.5,408.2z"/>
	<polygon points="85.4,418.2 82.8,418.1 79.1,414.2 79.2,409.9 87.9,401.9 88,398.6 91,395.7 94.3,395.8 96.2,394.1 100.4,394.2 
		104.1,398.2 104,402.4 102.6,403.7 106.8,408.3 106.9,412.3 104.7,414.8 103,415.8 85.5,419 	"/>
	<path class="st0" d="M91.6,402.5l-1.6-1.7l3-2.9l1.6,1.7l3.6-3.3l3.7,3.9l-3.6,3.3l6.3,6.7l-2.2,2.5L85,416l0,0l-3.7-3.9
		L91.6,402.5z M98.7,410l-3.4-3.6l-5.3,4.9l0.1,0.1l1.3-0.4L98.7,410z"/>
	<path d="M80.2,395.6c-2.5-0.1-4.5-1.2-5.9-3.1c-0.7-1-1.3-2.2-1.5-3.4c-0.3-1.1-0.3-2.4-0.2-3.7l-3.2-0.7l-1.8-3.3l0.9-3.8
		c1.9-1.4,4-2.1,6.1-2.1c0.1,0,0.2,0,0.3,0c2.5,0.1,4.5,1.2,5.9,3.1c0.8,1,1.3,2.2,1.5,3.4c0.2,1.1,0.3,2.4,0.1,3.8l3.2,0.7l1.8,3.3
		l-0.9,3.9c-2,1.4-4,2.1-6.1,2.1L80.2,395.6z"/>
	<path class="st0" d="M70.2,379.9c1.5-1.1,3-1.6,4.6-1.5c1.5,0.1,2.7,0.7,3.6,1.9c0.5,0.7,0.9,1.5,1,2.3c0.2,0.8,0.2,1.7,0.1,2.8
		c-0.1,0.7-0.1,1.2,0,1.6c0,0.4,0.2,0.8,0.5,1.1c0.3,0.4,0.7,0.5,1.3,0.5c0.6,0,1.2-0.3,1.8-0.7l1.8,3.3c-1.5,1.1-3,1.6-4.5,1.6
		c-1.5,0-2.7-0.7-3.6-1.9c-0.5-0.7-0.8-1.5-1-2.3c-0.2-0.8-0.2-1.8-0.1-2.8c0.1-0.6,0.1-1.1,0.1-1.6c0-0.4-0.2-0.8-0.4-1.1
		c-0.3-0.4-0.7-0.5-1.3-0.5c-0.6,0-1.2,0.3-1.9,0.7L70.2,379.9z"/>
	<path d="M57.4,374.9c-1,0-2.1-0.1-3.1-0.4c-3.2-0.9-5.6-2.9-7.3-6.1c-1.7-3.2-2.3-6.3-1.7-9c0.4-2,1.8-4.9,5.7-6.9l1.3-0.3l0.1,0
		l2.7,1.6l2.5,4.6l-1.2,4.1c-0.4,0.2-0.6,0.4-0.8,0.5c0,0.1,0.1,0.4,0.3,0.7c0.1,0.1,0.1,0.2,0.1,0.2l0,0c0,0,0,0,0.1,0
		c0.1,0,0.1,0,0.2,0c0.5,0,1.2-0.2,2-0.6l4.3-2.3c0.6-0.3,1.4-0.8,1.7-1.4c0.1-0.1,0.1-0.3-0.1-0.7c-0.1-0.2-0.2-0.3-0.2-0.3
		c-0.2,0.1-0.5,0.2-0.9,0.4l-4.1-1.2l-2.5-4.6l0.5-3.5l0.1-0.1l0.7-0.5c1.9-1.1,3.8-1.6,5.7-1.6c1.1,0,2.2,0.2,3.2,0.6
		c2.6,1,4.8,3.1,6.5,6.2c1.7,3.2,2.1,6.5,1.1,9.6c-1,3.1-3.1,5.6-6.3,7.3l-4.3,2.3C61.6,374.3,59.5,374.9,57.4,374.9z"/>
	<path class="st0" d="M59.2,351.5L59.2,351.5c2.4-1.4,4.5-1.6,6.4-0.9c1.9,0.7,3.6,2.3,4.9,4.8c1.4,2.5,1.7,5,0.9,7.3
		c-0.7,2.4-2.3,4.2-4.8,5.5l-4.3,2.3c-2.5,1.3-4.9,1.7-7.2,1c-2.3-0.6-4.2-2.2-5.5-4.6c-1.4-2.6-1.9-4.9-1.4-7
		c0.5-2.1,1.8-3.7,4.2-4.9l0.1,0l2.5,4.6c-1.3,0.7-2,1.4-2.3,2.2c-0.3,0.8-0.1,1.8,0.6,3.1c0.6,1.1,1.4,1.7,2.6,1.8
		c1.2,0.1,2.5-0.2,3.9-1l4.3-2.3c1.4-0.8,2.4-1.7,2.9-2.8c0.5-1.1,0.5-2.2-0.1-3.4c-0.6-1.1-1.3-1.7-2.1-1.9
		c-0.8-0.2-1.8,0.1-3.1,0.7L59.2,351.5z"/>
	<polygon points="41,355.8 38.9,350.8 40.5,346.9 55.2,340.6 52.5,334.2 54.1,330.3 57.9,328.7 61.9,330.3 67.8,344.4 66.3,348.4 
		44.9,357.4 	"/>
	<path class="st0" d="M59.2,342.2l-3.9-9.2l3.8-1.6l6,14.1l-21.4,9l-2.1-5L59.2,342.2z"/>
	<polygon points="34.3,333.4 31.4,331.3 30.6,328.6 30.6,328.6 30.5,328.5 29.7,325.8 30.8,322.5 50.6,308.2 55.2,309.7 56.9,315.1 
		55.8,318.5 53.7,319.9 54.4,322.2 56.9,322.2 59.8,324.3 61.5,329.7 58.7,333.6 	"/>
	<path class="st0" d="M50.2,318.7l2.1,6.6l4.7-0.1l1.7,5.4l-24.4-0.2l-0.9-2.7l0,0l0,0l-0.9-2.7l19.8-14.2l1.7,5.4L50.2,318.7z
		 M47.9,325.3l-1.3-4.2l-6.2,4.2l0,0.1L47.9,325.3z"/>
	<path d="M34.3,316.6c-2.1,0-4.1-0.8-5.8-2.3c-2-1.8-3.4-4.2-4-7.3c-0.7-3.2-0.5-6.1,0.7-8.5c1.3-2.7,3.6-4.5,6.8-5.1l0.9,0l0.1,0
		l2.6,2.3l0,0c0-0.1,0.1-0.1,0.1-0.2c1.2-2.4,3.4-4,6.2-4.6c0.7-0.1,1.4-0.2,2.1-0.2c2.1,0,4.1,0.8,5.8,2.3c1.9,1.7,3.3,4.2,4,7.4
		c0.7,3.1,0.5,6.1-0.6,8.7c-0.8,2.1-2.8,4.8-7.4,5.6l-0.9,0l-0.1,0l-2.6-2.3l0-0.2c-1.2,2.1-3.2,3.5-5.8,4.1
		C35.6,316.5,34.9,316.6,34.3,316.6z"/>
	<path class="st0" d="M43.7,299.2c-0.8,0.2-1.4,0.6-1.7,1.2c-0.3,0.6-0.6,1.7-0.8,3.2c-0.3,3-0.8,5.3-1.6,6.9c-0.7,1.6-2.1,2.6-4,3
		c-1.9,0.4-3.6-0.1-5.1-1.4c-1.5-1.3-2.5-3.2-3.1-5.7c-0.6-2.6-0.4-4.8,0.5-6.6c0.9-1.8,2.4-3,4.6-3.4l0.1,0l1.1,5.1
		c-1.1,0.2-1.8,0.7-2.1,1.4c-0.4,0.7-0.4,1.6-0.2,2.8c0.2,1,0.6,1.7,1.2,2.1c0.6,0.5,1.2,0.6,1.9,0.5c0.7-0.1,1.1-0.5,1.4-1.2
		c0.3-0.7,0.6-1.8,0.8-3.5c0.2-2.8,0.7-5,1.6-6.6c0.8-1.6,2.2-2.6,4.2-3c2-0.4,3.7,0,5.2,1.3c1.5,1.3,2.5,3.3,3,5.8
		c0.6,2.6,0.4,4.9-0.4,6.9c-0.8,2-2.5,3.3-5.2,3.8l-0.1,0l-1.1-5.1c1.3-0.3,2.2-0.8,2.6-1.6c0.4-0.8,0.5-1.8,0.2-3.2
		c-0.2-1.1-0.6-1.9-1.2-2.3C45,299.2,44.4,299,43.7,299.2z"/>
	<path d="M30.5,295.6c-2.4,0-4.6-1-6.4-2.9c-1.8-1.9-2.9-4.5-3.3-7.6c-0.4-3.3,0.1-6.1,1.5-8.4c1.5-2.6,4-4.1,7.2-4.4l0.9,0l0.1,0
		l2.4,2.6l0,0c0-0.1,0.1-0.1,0.1-0.2c1.5-2.2,3.7-3.6,6.6-4c0.4,0,0.8-0.1,1.2-0.1c2.5,0,4.7,1,6.4,2.8c1.8,1.9,2.9,4.5,3.2,7.8
		c0.4,3.2-0.1,6.1-1.4,8.6c-1,2-3.2,4.5-7.9,4.9l-0.9,0l-0.1,0l-2.4-2.6l0-0.2c-1.4,2-3.5,3.2-6.2,3.6
		C31.3,295.6,30.9,295.6,30.5,295.6z"/>
	<path class="st0" d="M40.7,279.1c-0.8,0.1-1.4,0.4-1.8,1c-0.4,0.6-0.7,1.6-1.1,3.1c-0.6,3-1.3,5.2-2.2,6.7
		c-0.9,1.5-2.3,2.4-4.3,2.6c-1.9,0.2-3.6-0.4-5-1.9c-1.4-1.5-2.2-3.5-2.5-5.9c-0.3-2.6,0.1-4.8,1.1-6.6c1-1.7,2.7-2.7,4.9-2.9l0.1,0
		l0.6,5.2c-1.1,0.1-1.8,0.5-2.3,1.2c-0.4,0.6-0.6,1.6-0.4,2.8c0.1,1,0.4,1.7,1,2.2c0.5,0.5,1.2,0.7,1.9,0.6c0.7-0.1,1.2-0.4,1.5-1.1
		c0.3-0.6,0.7-1.8,1.1-3.4c0.5-2.8,1.2-4.9,2.2-6.4c1-1.5,2.5-2.4,4.4-2.6c2-0.2,3.7,0.4,5,1.8s2.2,3.5,2.5,6.1
		c0.3,2.6,0,4.9-1.1,6.8c-1,2-2.8,3.1-5.5,3.3l-0.1,0l-0.6-5.2c1.3-0.2,2.3-0.6,2.7-1.3c0.5-0.7,0.6-1.8,0.5-3.1
		c-0.1-1.1-0.5-1.9-1-2.4C42,279.2,41.4,279,40.7,279.1z"/>
	<polygon points="19.9,271.3 19.7,266 22.5,262.8 45.7,261.7 48.8,264.5 49.1,269.9 46.2,273.1 23.1,274.2 	"/>
	<path class="st0" d="M45.8,264.7l0.3,5.4l-23.2,1.1l-0.3-5.4L45.8,264.7z"/>
	<path d="M31.5,264.2c-3.6-0.1-6.6-1.3-8.9-3.5c-2.3-2.3-3.5-5.3-3.4-8.9c0.1-3.7,1.1-6.6,2.9-8.7c1.9-2.2,4.5-3.2,7.8-3.2
		c0.2,0,0.4,0,0.6,0l1.3,0.3l0.1,0l1.6,2.7l-0.1,5.2l-3.1,2.9l-0.1,0c-0.4,0-0.6,0-0.8,0.1c0,0.1-0.1,0.4-0.1,0.8c0,0.2,0,0.2,0,0.2
		l0,0c0,0,0,0,0.1,0.1c0.5,0.3,1.2,0.5,2.2,0.5l5,0.1c0.6,0,1.5-0.1,2-0.5c0.1-0.1,0.2-0.2,0.2-0.6c0-0.2,0-0.3,0-0.4
		c-0.2,0-0.5-0.1-1-0.1l-2.9-3.1l0.1-5.2l2.1-2.8l0.1,0l0.9-0.1c3.5,0,6.3,1.2,8.2,3.4c1.8,2.1,2.7,5,2.6,8.6
		c-0.1,3.7-1.3,6.7-3.7,9c-2.3,2.2-5.2,3.3-8.7,3.3L31.5,264.2z"/>
	<path class="st0" d="M38.1,243.1L38.1,243.1c2.7,0,4.7,0.8,6.1,2.3c1.3,1.6,2,3.8,1.9,6.6c-0.1,2.9-1,5.2-2.8,6.9
		c-1.8,1.7-4.1,2.5-6.9,2.5l-4.8-0.1c-2.8-0.1-5.1-0.9-6.8-2.6c-1.7-1.7-2.6-3.9-2.5-6.7c0.1-2.9,0.8-5.2,2.2-6.8
		c1.4-1.6,3.4-2.3,6-2.2l0.1,0l-0.1,5.2c-1.4,0-2.4,0.3-3.1,0.8c-0.6,0.6-1,1.6-1,3c0,1.2,0.4,2.1,1.4,2.8c1,0.7,2.2,1,3.9,1.1
		l4.9,0.1c1.6,0,2.9-0.3,3.9-1c1-0.7,1.5-1.7,1.5-3c0-1.2-0.3-2.1-0.9-2.7c-0.6-0.6-1.6-0.9-3.1-0.9L38.1,243.1z"/>
	<path d="M39.6,235c-0.8,0-1.5-0.1-2.3-0.2l-4.8-0.7c-3.6-0.5-6.4-2.1-8.3-4.7c-2-2.6-2.7-5.7-2.2-9.3c0.6-3.6,1.9-6.4,4.1-8.2
		c1.8-1.5,3.9-2.3,6.4-2.3c0.7,0,1.5,0.1,2.3,0.2l1.2,0.5l0.1,0.1l1.2,2.9l-0.8,5.2l-3.4,2.5c-0.3,0-0.5-0.1-0.7-0.1
		c-0.1,0-0.1,0-0.2,0c-0.1,0.1-0.1,0.4-0.2,0.8c0,0.1,0,0.2,0,0.2l0,0c0,0,0,0,0.1,0.1c0.4,0.4,1.1,0.7,2.1,0.8l4.8,0.7
		c0.3,0.1,0.7,0.1,1,0.1c0.5,0,0.9-0.1,1.2-0.2c0.1-0.1,0.3-0.1,0.3-0.6c0-0.2,0-0.3,0-0.4c-0.2-0.1-0.5-0.2-1-0.2l-2.5-3.4l0.8-5.2
		l2.4-2.5l0.1,0l0.9,0c3.5,0.5,6.1,2,7.7,4.5c1.5,2.4,2,5.3,1.5,8.8c-0.6,3.6-2.2,6.5-4.9,8.4C44.7,234.3,42.3,235,39.6,235z"/>
	<path class="st0" d="M41.9,214.1L41.9,214.1c2.7,0.3,4.6,1.4,5.7,3.1c1.1,1.7,1.5,4,1,6.8c-0.4,2.8-1.7,5-3.7,6.4
		c-2,1.4-4.4,2-7.2,1.5l-4.8-0.7c-2.8-0.4-4.9-1.6-6.4-3.5c-1.5-1.9-2-4.2-1.6-7c0.4-2.9,1.5-5.1,3.1-6.4c1.6-1.4,3.7-1.9,6.3-1.4
		l0.1,0.1l-0.8,5.2c-1.4-0.2-2.5-0.1-3.2,0.4c-0.7,0.5-1.2,1.4-1.4,2.8c-0.2,1.2,0.2,2.2,1,3c0.9,0.8,2.1,1.3,3.7,1.6l4.8,0.7
		c1.6,0.2,2.9,0.1,4-0.5c1.1-0.6,1.7-1.5,1.9-2.8c0.2-1.2,0-2.1-0.5-2.8c-0.5-0.6-1.5-1.1-2.9-1.3L41.9,214.1z"/>
	<path d="M43.6,214.3c-1.2,0-2.4-0.2-3.6-0.5l-4-1c-3.5-0.9-6.2-2.9-8-5.8c-1.8-2.9-2.2-6.3-1.2-9.9c0.9-3.6,2.9-6.3,5.9-8
		c1.9-1.1,4-1.7,6.2-1.7c1.2,0,2.4,0.2,3.6,0.5l4,1c3.5,0.9,6.2,2.9,8,5.8c1.8,2.9,2.2,6.2,1.2,9.9c-0.9,3.6-2.9,6.4-5.9,8.1
		C47.9,213.7,45.8,214.3,43.6,214.3z M38.2,198.7c-0.4,0-0.7,0.1-1,0.2c-0.2,0.1-0.4,0.2-0.6,0.8c-0.2,0.6,0,0.8,0.1,1
		c0.4,0.5,1.1,0.9,2.1,1.1l4.1,1.1c0.5,0.1,1,0.2,1.4,0.2l0,0c0.4,0,0.7-0.1,1-0.2c0.2-0.1,0.4-0.2,0.6-0.8c0.1-0.6,0-0.8-0.1-0.9
		c-0.4-0.5-1.1-0.9-2.1-1.2l-4.1-1.1C39.1,198.7,38.6,198.7,38.2,198.7z"/>
	<path class="st0" d="M45.7,191.8c2.8,0.7,4.8,2.2,6.2,4.4c1.3,2.2,1.6,4.7,0.9,7.6c-0.7,2.8-2.2,4.9-4.5,6.2s-4.8,1.6-7.5,0.9l-4-1
		c-2.8-0.7-4.8-2.2-6.1-4.4c-1.3-2.2-1.6-4.8-0.9-7.6c0.7-2.8,2.2-4.9,4.5-6.2c2.3-1.3,4.8-1.6,7.5-0.9L45.7,191.8z M40.3,196
		c-1.6-0.4-3-0.4-4.2,0.1c-1.2,0.5-2,1.4-2.4,2.8c-0.4,1.4-0.1,2.6,0.7,3.6c0.8,1,2.1,1.7,3.7,2.1l4.1,1.1c1.6,0.4,3,0.4,4.3-0.1
		c1.2-0.5,2-1.4,2.4-2.8c0.4-1.4,0.1-2.6-0.7-3.6c-0.8-1-2.1-1.7-3.7-2.2L40.3,196z"/>
	<polygon points="33,186.5 31.2,182.7 33.1,177.6 36.9,175.8 52,181.3 54.4,174.7 58.2,172.9 62.1,174.4 63.9,178.2 58.7,192.6 
		54.8,194.4 	"/>
	<path class="st0" d="M53.8,185.1l3.4-9.4l3.9,1.4l-5.2,14.4l-21.8-7.9l1.8-5.1L53.8,185.1z"/>
	<polygon points="39.8,167.9 38.3,164 40.5,159.1 44.5,157.6 59.1,164.3 62,158 66,156.6 69.8,158.3 71.2,162.3 64.8,176.2 
		60.8,177.7 	"/>
	<path class="st0" d="M60.6,168.3l4.2-9l3.8,1.7L62.1,175L41,165.2l2.3-4.9L60.6,168.3z"/>
	<polygon points="48,150 46.9,146 54.4,132.7 58.5,131.6 62.1,133.7 63.2,137.8 62.9,138.3 65.6,137.6 69.2,139.6 70.2,143.4 
		70.9,142.2 75,141.1 78.6,143.1 79.8,147.2 72.2,160.4 68.2,161.5 	"/>
	<path class="st0" d="M67.7,142.2l-4,7.1l5,2.9l4.8-8.5l3.6,2.1l-7.5,13.2l-20.2-11.5l7.5-13.2l3.6,2.1l-4.9,8.5l4.3,2.5l4-7.1
		L67.7,142.2z"/>
	<path d="M76.3,143.6c-2.5,0-5-0.8-7.3-2.5l-4-2.8c-3-2.1-4.8-4.7-5.4-7.8c-0.7-3.2,0-6.3,2.1-9.3c2.1-3,4.5-4.9,7.3-5.6
		c0.8-0.2,1.6-0.3,2.4-0.3c2.2,0,4.3,0.8,6.4,2.3l0.9,1l0.1,0.1l-0.2,3.2l-3,4.3l-4.2,0.8c-0.4-0.3-0.6-0.4-0.8-0.5
		c-0.1,0.1-0.3,0.3-0.5,0.6c-0.1,0.1-0.1,0.2-0.1,0.2c0,0,0,0,0,0.1c0.2,0.5,0.7,1.1,1.6,1.6l4,2.8c0.8,0.5,1.5,0.8,2,0.8
		c0.2,0,0.3,0,0.6-0.4c0.1-0.1,0.2-0.3,0.2-0.3c-0.1-0.1-0.4-0.4-0.8-0.6l-0.8-4.2l3-4.3l3.3-1.2l0.1,0L84,122c2.9,2,4.6,4.5,5,7.4
		c0.3,2.8-0.5,5.7-2.6,8.6c-2.1,3-4.8,4.8-8,5.4C77.7,143.6,77,143.6,76.3,143.6z"/>
	<path class="st0" d="M82.2,124.5L82.2,124.5c2.3,1.5,3.5,3.3,3.8,5.3c0.2,2-0.4,4.2-2,6.5c-1.6,2.4-3.7,3.7-6.1,4.2
		c-2.4,0.4-4.8-0.2-7.1-1.8l-4-2.8c-2.3-1.6-3.7-3.6-4.2-6c-0.5-2.4,0.1-4.7,1.6-7c1.7-2.4,3.5-3.9,5.6-4.4c2-0.5,4.1,0,6.2,1.5
		l0.1,0.1l-3,4.3c-1.2-0.8-2.2-1.1-3-1c-0.9,0.1-1.7,0.8-2.5,1.9c-0.7,1-0.8,2-0.4,3.1c0.4,1.1,1.3,2.1,2.6,3l4,2.8
		c1.3,0.9,2.6,1.4,3.8,1.4c1.2,0,2.2-0.6,3-1.7c0.7-1,1-1.9,0.8-2.7c-0.2-0.8-0.9-1.6-2.1-2.4L82.2,124.5z"/>
	<polygon points="78.7,115.8 76.7,118.2 72.5,118.5 69.3,115.9 68.9,111.7 80.2,98.2 84.4,97.8 87.6,100.5 88,104.7 86,107.1 
		98.3,117.4 98.7,121.6 95.2,125.7 91,126.1 	"/>
	<path class="st0" d="M85.7,102.8l-3.9,4.7l14.6,12.2l-3.5,4.1l-14.6-12.2l-3.9,4.6l-3.2-2.7l11.2-13.5L85.7,102.8z"/>
	<polygon points="83,99.7 82.9,95.4 86.6,91.5 90.9,91.4 107.7,107.4 107.8,111.7 104.1,115.5 99.8,115.7 	"/>
	<path class="st0" d="M105.6,109.6l-3.7,3.9l-16.8-16l3.7-3.9L105.6,109.6z"/>
	<path d="M108.6,106.5c-0.2,0-0.5,0-0.7,0c-3.4-0.2-6.4-1.7-8.8-4.4L96.3,99c-2.4-2.7-3.6-5.8-3.5-9.2c0.1-3.4,1.6-6.4,4.4-9
		c2.6-2.3,5.5-3.5,8.6-3.5c0.2,0,0.5,0,0.7,0c3.4,0.2,6.4,1.7,8.8,4.4l2.8,3.1c2.5,2.7,3.6,5.8,3.5,9.2c-0.1,3.4-1.6,6.4-4.4,8.9
		C114.7,105.3,111.8,106.5,108.6,106.5z M104.7,88.1c-0.1,0-0.3,0-0.7,0.3c-0.5,0.4-0.5,0.7-0.4,0.9c0.1,0.6,0.4,1.4,1.1,2.1
		l2.8,3.1c0.7,0.8,1.4,1.2,2,1.3c0.1,0,0.1,0,0.2,0c0.1,0,0.3,0,0.7-0.4c0.4-0.4,0.4-0.6,0.4-0.8c-0.1-0.7-0.5-1.4-1.1-2.1l-2.8-3.1
		c-0.7-0.7-1.3-1.2-2-1.3C104.8,88.1,104.7,88.1,104.7,88.1z"/>
	<path class="st0" d="M115.9,86.9c1.9,2.1,2.8,4.5,2.7,7.1c-0.1,2.6-1.2,4.9-3.4,6.8c-2.2,2-4.6,2.9-7.2,2.7
		c-2.6-0.1-4.9-1.3-6.8-3.4L98.5,97c-1.9-2.1-2.8-4.5-2.7-7.1s1.2-4.9,3.4-6.9c2.2-2,4.5-2.9,7.1-2.7c2.6,0.1,4.9,1.3,6.8,3.4
		L115.9,86.9z M109.1,87.4c-1.1-1.2-2.3-2-3.6-2.2s-2.5,0.1-3.5,1c-1.1,1-1.5,2.1-1.4,3.4c0.1,1.3,0.8,2.6,1.9,3.8l2.8,3.1
		c1.1,1.2,2.3,2,3.6,2.3c1.3,0.3,2.5-0.1,3.6-1.1c1-0.9,1.5-2.1,1.4-3.4c-0.1-1.3-0.8-2.6-1.9-3.8L109.1,87.4z"/>
	<polygon points="122,94 108.3,75.2 109,71.1 113.3,67.9 116.3,67.5 121.7,69.9 119.6,67 120.2,62.8 124.6,59.6 128.8,60.3 
		142.5,79 141.8,83.2 137.5,86.4 134.5,86.7 129.1,84.3 131.2,87.2 130.5,91.4 126.2,94.6 	"/>
	<path class="st0" d="M140,80.8l-4.3,3.2l-15.5-6.8l-0.1,0.1l8.6,11.8l-4.3,3.2l-13.7-18.7l4.3-3.2l15.5,6.8l0.1-0.1L122,65.2
		l4.3-3.2L140,80.8z"/>
	<path d="M146.6,76.5l-1.7-3.1l-0.3-2.1l2.3-9.5l-4.3,2.3l-3.5-0.4l-0.1-0.1l-0.6-0.7c-1.5-2.5-1.8-5.4-1-8.1c0.8-2.8,2.7-5,5.5-6.6
		c2.1-1.1,4.1-1.7,6-1.7c0.7,0,1.5,0.1,2.2,0.3c2.6,0.6,4.8,2.4,6.2,5c1,1.8,1.4,3.7,1.2,5.7c-0.1,1.2-0.4,2.7-0.9,4.8l2.2-1.2
		l4.1,1.2l2,3.6l-1.2,4.1l-14.2,7.7L146.6,76.5z"/>
	<path class="st0" d="M163.4,67.4l-14.2,7.7l-1.7-3.1l2.5-10.3c0.3-1.4,0.5-2.6,0.5-3.6c0-1-0.2-1.7-0.5-2.3
		c-0.4-0.8-0.9-1.3-1.6-1.6c-0.6-0.3-1.3-0.2-2.1,0.2c-0.7,0.4-1.1,1-1.2,1.8c-0.1,0.8,0.1,1.7,0.6,2.6l-4.6,2.5l-0.1-0.1
		c-1.1-1.9-1.3-3.8-0.7-5.8c0.6-2,1.9-3.6,4.1-4.8c2.2-1.2,4.3-1.6,6.1-1.2c1.8,0.4,3.2,1.6,4.3,3.5c0.7,1.3,1,2.6,0.9,4
		c-0.1,1.4-0.6,3.5-1.3,6.4l-0.9,4.3l0.1,0.1l7.9-4.3L163.4,67.4z"/>
	<path d="M169.3,67.4c-1.4,0-2.7-0.3-4-0.8c-2.7-1.2-4.8-3.4-6.2-6.6l-2.5-5.6c-1.4-3.3-1.6-6.3-0.7-9c1-2.8,3-4.9,6.1-6.2
		c1.6-0.7,3.1-1,4.6-1c1.4,0,2.7,0.3,4,0.8c2.7,1.2,4.8,3.4,6.2,6.6l2.5,5.6c1.4,3.3,1.6,6.3,0.6,9.1c-1,2.8-3.1,4.9-6.1,6.2
		C172.4,67,170.8,67.4,169.3,67.4z"/>
	<path class="st0" d="M176.7,52.3c1.1,2.5,1.3,4.8,0.6,6.9c-0.7,2-2.2,3.5-4.4,4.5c-2.2,1-4.4,1-6.3,0.2c-2-0.8-3.5-2.5-4.6-5.1
		l-2.5-5.6c-1.1-2.5-1.3-4.8-0.6-6.8c0.7-2,2.2-3.5,4.4-4.5c2.2-1,4.3-1,6.3-0.2s3.5,2.5,4.6,5.1L176.7,52.3z M169.1,48.4
		c-0.6-1.3-1.2-2.2-2-2.7c-0.7-0.5-1.5-0.6-2.3-0.2c-0.8,0.3-1.2,0.9-1.4,1.8c-0.1,0.9,0.1,1.9,0.6,3.2l2.7,6.3
		c0.6,1.3,1.2,2.2,2,2.7c0.7,0.5,1.5,0.6,2.3,0.2c0.8-0.3,1.2-0.9,1.4-1.8c0.1-0.9-0.1-2-0.7-3.3L169.1,48.4z"/>
	<path d="M179.6,60.1l-1.1-3.3l0.1-2.2l3.9-8.9l-4.7,1.6l-3.3-1l-0.1-0.1l-0.4-0.8c-1-2.8-0.9-5.6,0.4-8.2c1.3-2.6,3.5-4.5,6.6-5.5
		c1.6-0.5,3-0.8,4.4-0.8c1.4,0,2.7,0.3,3.9,0.8c2.5,1.1,4.3,3.2,5.2,6c0.7,2,0.7,3.9,0.2,5.8c-0.3,1.1-0.9,2.6-1.7,4.6l2.4-0.8
		l3.8,1.9l1.3,3.9l-1.9,3.8L183.4,62L179.6,60.1z"/>
	<path class="st0" d="M197.7,54.1l-15.3,5.1l-1.1-3.3l4.3-9.7c0.6-1.3,0.9-2.5,1.1-3.4c0.2-0.9,0.1-1.7-0.1-2.3
		c-0.3-0.9-0.7-1.5-1.3-1.8c-0.5-0.4-1.2-0.4-2.1-0.1c-0.8,0.3-1.3,0.8-1.5,1.6c-0.2,0.8-0.2,1.7,0.2,2.7l-5,1.7l-0.1-0.1
		c-0.7-2-0.6-4,0.3-5.8c0.9-1.9,2.5-3.2,4.8-4c2.4-0.8,4.5-0.8,6.2-0.1c1.7,0.7,2.9,2.2,3.6,4.2c0.5,1.4,0.5,2.7,0.1,4.1
		c-0.4,1.3-1.2,3.3-2.4,6.1l-1.6,4.1l0.1,0.1l8.5-2.8L197.7,54.1z"/>
	<polygon points="205.4,52.1 205,50.3 198.9,51.8 195.4,49.8 194.3,46.7 194.3,44.7 200.1,28 200.9,28.2 202.3,26 207.5,24.7 
		211.1,26.9 213.9,38.4 216.7,40.1 217.7,44.2 215.9,47 216.5,49.5 214.3,53.1 209.1,54.4 	"/>
	<path class="st0" d="M211.5,41.4l2.3-0.5l1,4.1l-2.3,0.5l1.1,4.8l-5.2,1.2l-1.1-4.8l-9,2.1l-1.1-3.2l5.8-16.8l0,0l5.2-1.3
		L211.5,41.4z M201.5,43.8l4.8-1.1l-1.7-7l-0.1,0l-0.3,1.3L201.5,43.8z"/>
	<path d="M224.7,44.1l-2.9-2.7c-0.3-2.5,0.2-4.7,1.3-6.6c1.3-2.1,3.2-3.3,5.6-3.6c0.3,0,0.7-0.1,1-0.1c0.9,0,1.9,0.1,2.8,0.4
		c1.1,0.3,2.2,0.9,3.3,1.7l2.3-2.4l3.7,0.1l2.9,2.7c0.3,2.5-0.2,4.7-1.4,6.6c-1.3,2.1-3.2,3.3-5.6,3.6c-0.3,0-0.7,0.1-1,0.1
		c-0.9,0-1.8-0.1-2.7-0.4c-1.1-0.3-2.2-0.9-3.3-1.8l-2.3,2.4L224.7,44.1z"/>
	<path class="st0" d="M241.7,34c0.2,1.8-0.1,3.4-0.9,4.7c-0.8,1.3-1.9,2-3.4,2.2c-0.9,0.1-1.7,0-2.5-0.2c-0.8-0.2-1.6-0.7-2.5-1.3
		c-0.5-0.4-1-0.7-1.4-0.8c-0.4-0.2-0.8-0.2-1.2-0.2c-0.5,0-0.8,0.4-1.1,0.9c-0.3,0.6-0.4,1.2-0.3,2l-3.7-0.1
		c-0.2-1.8,0.1-3.4,0.9-4.7c0.8-1.3,1.9-2,3.4-2.2c0.9-0.1,1.7,0,2.5,0.3c0.8,0.3,1.7,0.7,2.5,1.3c0.5,0.4,0.9,0.7,1.3,0.8
		c0.4,0.2,0.8,0.2,1.2,0.2c0.5,0,0.8-0.4,1.1-0.9c0.3-0.6,0.4-1.2,0.3-2L241.7,34z"/>
</g>
</svg>
