<?xml version="1.0" encoding="utf-8"?>
<!-- Generator: Adobe Illustrator 23.0.5, SVG Export Plug-In . SVG Version: 6.00 Build 0)  -->
<svg version="1.1" id="Layer_1" xmlns="http://www.w3.org/2000/svg" xmlns:xlink="http://www.w3.org/1999/xlink" x="0px" y="0px"
	 viewBox="0 0 433 495" style="enable-background:new 0 0 433 495;" xml:space="preserve">
<style type="text/css">
	.st0{fill:#FFFFFF;}
</style>
<g>
	<path class="st0" d="M184.8,68.4L55.2,105.7c-5.5,1.6-8.7,7.4-7.1,12.9c1.6,5.6,7.3,8.8,12.8,7.2l116.3-33.5v328.9
		c0,5.8,4.7,10.5,10.4,10.5c5.7,0,10.4-4.7,10.4-10.5V78.4c0-3.3-1.5-6.4-4.1-8.4C191.3,68.1,188,67.5,184.8,68.4"/>
	<path class="st0" d="M245.5,431.6c5.7,0,10.4-4.7,10.4-10.5V233.1h68.8c5.7,0,10.4-4.7,10.4-10.5s-4.7-10.5-10.4-10.5h-68.8V92.3
		l116.3,33.5c5.5,1.6,11.3-1.6,12.8-7.2c1.6-5.5-1.6-11.3-7.1-12.9L248.4,68.4c-3.1-0.9-6.5-0.3-9.1,1.7c-2.6,2-4.1,5.1-4.1,8.4
		v342.8C235.1,427,239.8,431.6,245.5,431.6"/>
	<path class="st0" d="M425.6,59.5L219.4,0.4c-1.9-0.5-3.8-0.5-5.7,0L7.5,59.5C3.1,60.8,0,64.9,0,69.5v346.2c0,4.5,2.9,8.5,7.1,9.9
		l206.2,68.9c1.1,0.4,2.2,0.5,3.3,0.5c1.1,0,2.2-0.2,3.3-0.5l206.2-68.9c4.2-1.4,7.1-5.4,7.1-9.9V69.5
		C433.2,64.9,430.1,60.8,425.6,59.5 M412.4,408.2l-195.9,65.5L20.8,408.2V77.4l195.8-56.1l195.9,56.1V408.2z"/>
</g>
</svg>
